<?xml version="1.0" encoding="utf-8"?>
<!-- Generator: Adobe Illustrator 24.3.0, SVG Export Plug-In . SVG Version: 6.00 Build 0)  -->
<svg version="1.1" id="Layer_1" xmlns="http://www.w3.org/2000/svg" xmlns:xlink="http://www.w3.org/1999/xlink" x="0px" y="0px"
	 viewBox="0 0 300 228.52" style="enable-background:new 0 0 300 228.52;" xml:space="preserve">
<g>
	<g>
		<g>
			<path d="M273.63,0H26.37c-4.06,0-7.86,1-11.3,2.64l134.34,134.34l30.11-28.94c0,0,0,0,0,0c0,0,0,0,0,0l105.4-105.4
				C281.49,1,277.69,0,273.63,0z"/>
		</g>
	</g>
	<g>
		<g>
			<path d="M297.36,15.07l-99.19,99.18l99.19,99.19c1.64-3.44,2.64-7.24,2.64-11.3V26.37C300,22.31,299,18.51,297.36,15.07z"/>
		</g>
	</g>
	<g>
		<g>
			<path d="M2.64,15.07C1,18.51,0,22.31,0,26.37v175.78c0,4.06,1,7.86,2.64,11.29l99.19-99.18L2.64,15.07z"/>
		</g>
	</g>
	<g>
		<g>
			<path d="M185.74,126.69l-30.11,28.94c-1.72,1.72-3.97,2.58-6.21,2.58c-2.25,0-4.5-0.86-6.21-2.58l-28.94-28.94l-99.19,99.18
				c3.44,1.65,7.24,2.64,11.3,2.64h247.27c4.06,0,7.86-1,11.3-2.64L185.74,126.69z"/>
		</g>
	</g>
</g>
</svg>
