<?xml version="1.0" encoding="utf-8"?>
<!-- Generator: Adobe Illustrator 24.3.0, SVG Export Plug-In . SVG Version: 6.00 Build 0)  -->
<svg version="1.1" id="Layer_1" xmlns="http://www.w3.org/2000/svg" xmlns:xlink="http://www.w3.org/1999/xlink" x="0px" y="0px"
	 viewBox="0 0 300 300" style="enable-background:new 0 0 300 300;" xml:space="preserve">
<path d="M150,0C67.17,0,0,67.17,0,150s67.17,150,150,150s150-67.17,150-150S232.83,0,150,0z M218.49,116.95
	c0.07,1.48,0.1,2.96,0.1,4.45c0,45.49-34.63,97.96-97.96,97.96h0h0c-19.44,0-37.54-5.7-52.77-15.47c2.69,0.32,5.44,0.48,8.21,0.48
	c16.13,0,30.98-5.5,42.76-14.74c-15.07-0.28-27.78-10.23-32.16-23.91c2.1,0.4,4.26,0.62,6.47,0.62c3.14,0,6.19-0.42,9.08-1.21
	c-15.75-3.15-27.62-17.08-27.62-33.75c0-0.16,0-0.3,0-0.44c4.64,2.58,9.94,4.13,15.59,4.31c-9.24-6.17-15.32-16.71-15.32-28.66
	c0-6.31,1.71-12.22,4.66-17.31c16.98,20.83,42.35,34.53,70.97,35.97c-0.59-2.52-0.89-5.15-0.89-7.85
	c0-19.01,15.42-34.43,34.43-34.43c9.9,0,18.85,4.19,25.13,10.88c7.84-1.55,15.21-4.41,21.86-8.36c-2.57,8.04-8.03,14.78-15.14,19.04
	c6.96-0.83,13.6-2.68,19.77-5.42C231.05,106.03,225.21,112.09,218.49,116.95z"/>
</svg>
