<?xml version="1.0" encoding="utf-8"?>
<!-- Generator: Adobe Illustrator 24.3.0, SVG Export Plug-In . SVG Version: 6.00 Build 0)  -->
<svg version="1.1" id="Layer_1" xmlns="http://www.w3.org/2000/svg" xmlns:xlink="http://www.w3.org/1999/xlink" x="0px" y="0px"
	 viewBox="0 0 300 300" style="enable-background:new 0 0 300 300;" xml:space="preserve">
<style type="text/css">
	.st0{fill:#FFFFFF;}
</style>
<g>
	<path class="st0" d="M300,150C300,67.15,232.85,0,150,0S0,67.15,0,150s67.15,150,150,150c0.88,0,1.76,0,2.64-0.06V183.22h-32.23
		v-37.56h32.23V118c0-32.05,19.57-49.51,48.16-49.51c13.71,0,25.49,1,28.89,1.46v33.52H210c-15.53,0-18.57,7.38-18.57,18.22v23.91
		h37.21l-4.86,37.56h-32.34V294.2C254.12,276.21,300,218.5,300,150z"/>
</g>
</svg>
