<?xml version="1.0" encoding="utf-8"?>
<!-- Generator: Adobe Illustrator 24.3.0, SVG Export Plug-In . SVG Version: 6.00 Build 0)  -->
<svg version="1.1" id="Layer_1" xmlns="http://www.w3.org/2000/svg" xmlns:xlink="http://www.w3.org/1999/xlink" x="0px" y="0px"
	 viewBox="0 0 300 300" style="enable-background:new 0 0 300 300;" xml:space="preserve">
<g>
	<path d="M178.71,150c0,15.86-12.85,28.71-28.71,28.71s-28.71-12.85-28.71-28.71s12.85-28.71,28.71-28.71S178.71,134.14,178.71,150z
		"/>
	<path d="M217.14,99.2c-1.38-3.74-3.58-7.13-6.44-9.9c-2.78-2.86-6.16-5.06-9.9-6.44c-3.03-1.18-7.59-2.58-15.99-2.96
		c-9.08-0.41-11.81-0.5-34.81-0.5c-23,0-25.72,0.09-34.81,0.5c-8.4,0.38-12.96,1.79-15.99,2.97c-3.74,1.38-7.13,3.58-9.9,6.44
		c-2.86,2.78-5.06,6.16-6.45,9.9c-1.18,3.03-2.58,7.6-2.96,15.99c-0.41,9.08-0.5,11.81-0.5,34.81c0,23,0.09,25.72,0.5,34.81
		c0.38,8.4,1.79,12.96,2.96,15.99c1.38,3.74,3.58,7.13,6.44,9.9c2.78,2.86,6.16,5.06,9.9,6.44c3.03,1.18,7.6,2.58,15.99,2.97
		c9.08,0.41,11.8,0.5,34.8,0.5c23,0,25.73-0.09,34.81-0.5c8.4-0.38,12.96-1.79,15.99-2.97c7.51-2.9,13.45-8.83,16.35-16.35
		c1.18-3.03,2.58-7.59,2.97-15.99c0.41-9.08,0.5-11.81,0.5-34.81c0-23-0.09-25.72-0.5-34.81C219.73,106.8,218.33,102.24,217.14,99.2
		z M150,194.23c-24.43,0-44.23-19.8-44.23-44.23s19.8-44.23,44.23-44.23c24.43,0,44.23,19.8,44.23,44.23S174.43,194.23,150,194.23z
		 M195.98,114.36c-5.71,0-10.34-4.63-10.34-10.34s4.63-10.34,10.34-10.34s10.34,4.63,10.34,10.34
		C206.31,109.73,201.69,114.36,195.98,114.36z"/>
	<path d="M150,0C67.17,0,0,67.17,0,150s67.17,150,150,150s150-67.17,150-150S232.83,0,150,0z M235.61,185.51
		c-0.42,9.17-1.87,15.43-4,20.91c-4.47,11.57-13.62,20.72-25.19,25.19c-5.48,2.13-11.74,3.58-20.91,4
		c-9.19,0.42-12.12,0.52-35.51,0.52c-23.39,0-26.33-0.1-35.51-0.52c-9.17-0.42-15.43-1.87-20.91-4c-5.75-2.16-10.95-5.55-15.26-9.94
		c-4.38-4.3-7.77-9.51-9.93-15.25c-2.13-5.48-3.59-11.74-4-20.91c-0.42-9.19-0.52-12.12-0.52-35.51s0.1-26.33,0.52-35.51
		c0.42-9.17,1.87-15.43,4-20.91c2.16-5.75,5.55-10.95,9.94-15.25c4.3-4.38,9.51-7.77,15.25-9.94c5.48-2.13,11.74-3.58,20.91-4
		c9.19-0.42,12.12-0.52,35.51-0.52s26.33,0.1,35.51,0.52c9.17,0.42,15.43,1.87,20.91,4c5.75,2.16,10.95,5.55,15.26,9.94
		c4.38,4.3,7.77,9.51,9.93,15.25c2.13,5.48,3.59,11.74,4.01,20.91c0.42,9.19,0.52,12.12,0.52,35.51S236.03,176.33,235.61,185.51z"/>
</g>
</svg>
