<?xml version="1.0" encoding="utf-8"?>
<!-- Generator: Adobe Illustrator 24.3.0, SVG Export Plug-In . SVG Version: 6.00 Build 0)  -->
<svg version="1.1" id="Layer_1" xmlns="http://www.w3.org/2000/svg" xmlns:xlink="http://www.w3.org/1999/xlink" x="0px" y="0px"
	 viewBox="0 0 300 300" style="enable-background:new 0 0 300 300;" xml:space="preserve">
<style type="text/css">
	.st0{fill:#FFFFFF;}
</style>
<g>
	<g>
		<path class="st0" d="M256.05,43.92c-58.59-58.57-153.56-58.56-212.13,0.03s-58.56,153.56,0.03,212.13s153.56,58.56,212.13-0.03
			c28.13-28.14,43.93-66.3,43.92-106.08C299.99,110.19,284.18,72.04,256.05,43.92z M227.17,208.95c-0.01,0.01-0.01,0.01-0.02,0.02
			v-0.05l-7.6,7.55c-9.83,9.95-24.14,14.05-37.75,10.8c-13.71-3.67-26.74-9.51-38.6-17.3c-11.02-7.04-21.23-15.27-30.45-24.55
			c-8.48-8.42-16.1-17.67-22.75-27.6c-7.27-10.69-13.02-22.33-17.1-34.6c-4.67-14.41-0.8-30.23,10-40.85l8.9-8.9
			c2.47-2.49,6.5-2.49,8.98-0.02c0.01,0.01,0.01,0.01,0.02,0.02l28.1,28.1c2.49,2.47,2.49,6.5,0.02,8.98
			c-0.01,0.01-0.01,0.01-0.02,0.02l-16.5,16.5c-4.73,4.68-5.33,12.12-1.4,17.5c5.97,8.19,12.57,15.9,19.75,23.05
			c8,8.04,16.7,15.35,26,21.85c5.37,3.75,12.65,3.11,17.3-1.5l15.95-16.2c2.47-2.49,6.5-2.49,8.98-0.02
			c0.01,0.01,0.01,0.01,0.02,0.02l28.15,28.2C229.64,202.44,229.64,206.46,227.17,208.95z"/>
	</g>
</g>
</svg>
